<svg width="518" height="582" viewBox="0 0 518 582" fill="none" xmlns="http://www.w3.org/2000/svg">
<path fill-rule="evenodd" clip-rule="evenodd" d="M155.127 0L184.991 57.5713L155.127 115.143L125.264 57.5713L155.127 0ZM109.107 215.009C140.856 173.92 182.784 147.711 231.13 138.733C246.317 135.913 276.538 136.626 293.392 140.203C344.323 151.011 388.982 182.07 416.546 225.854C422.881 235.917 431.413 254.396 433.955 263.559C435.226 268.142 436.712 271.635 437.298 271.415C437.877 271.198 439.43 272.594 440.748 274.518C442.854 277.592 443.233 277.791 443.874 276.161C444.275 275.141 444.635 272.897 444.674 271.174C444.757 267.463 446.304 266.829 455.244 266.845C469.643 266.871 483.253 273.232 495.744 285.773C505.135 295.201 509.66 302.115 513.309 312.605C519.275 329.761 518.676 348.397 511.616 365.307C507.733 374.609 499.014 386.503 491.816 392.318C484.415 398.298 469.148 405.96 461.244 407.661C447.687 410.579 436.13 410.009 421.889 405.721C418.393 404.668 415.158 403.807 414.698 403.807C414.239 403.807 414.92 406.915 416.212 410.713C423.183 431.207 421.949 458.624 413.265 476.198C409.47 483.88 404.797 489.325 402.623 488.6C401.7 488.292 401.327 485.392 401.292 478.24C401.233 466.455 399.34 460.031 394.132 453.948C388.397 447.247 388.076 447.806 387.471 465.557C386.713 487.795 382.978 499.716 371.241 517.355C363.043 529.675 345.648 544.763 339.601 544.798C337.762 544.808 336.34 542.175 337.722 541.321C338.212 541.018 340.034 537.085 341.771 532.581C344.205 526.269 345.036 522.319 345.398 515.349C345.918 505.299 345.2 503.225 341.519 504.149C339.569 504.638 337.965 507.144 333.523 516.647C327.254 530.056 323.585 535.76 315.121 545.255C303.071 558.774 282.657 572.831 265.592 579.361L258.939 581.907L250.95 578.826C236.079 573.091 217.001 560.182 205.97 548.389C194.234 535.844 188.102 526.421 182.65 512.555C180.231 506.405 178.14 503.807 175.608 503.807C173.1 503.807 172.362 507.462 173.014 516.665C173.503 523.559 174.925 528.529 179.846 540.543C183 548.241 176.558 546.411 163.587 535.924C141.998 518.468 130.789 493.395 130.757 462.487C130.744 449.778 130.725 449.671 128.5 449.987C127.011 450.199 125.153 452.154 122.981 455.793C118.447 463.391 117.519 466.88 117.145 477.719C116.967 482.895 116.359 487.592 115.796 488.155C114.157 489.794 110.265 485.383 105.882 476.921C99.9049 465.379 98.6329 460.09 98.0229 444.247C97.5059 430.826 97.6269 429.605 100.682 417.399C102.442 410.366 103.655 404.385 103.377 404.107C103.099 403.829 100.031 404.547 96.5579 405.702C82.8989 410.245 63.8219 410.492 51.2439 406.287C28.6839 398.746 10.4769 380.528 3.14593 358.162C0.561926 350.279 0.245929 347.935 0.264929 336.807C0.289929 322.64 1.74892 316.116 7.64792 303.807C12.4879 293.707 26.9799 278.925 37.2439 273.619C49.9279 267.061 61.4599 265.196 72.3569 267.94L76.8549 269.072L76.2429 274.69C76.1197 275.822 76.011 276.679 75.931 277.309L75.9309 277.31C75.8012 278.332 75.7473 278.756 75.8308 278.785C75.8901 278.806 76.0188 278.627 76.2388 278.32C76.3953 278.103 76.598 277.82 76.8549 277.5C77.1728 277.103 77.515 276.774 77.8197 276.481C78.3356 275.985 78.7439 275.592 78.7439 275.151C78.7439 274.451 79.5389 273.452 80.5109 272.932C81.5759 272.361 82.9969 269.27 84.0899 265.146C88.0209 250.303 99.2969 227.705 109.107 215.009ZM256.226 274.44C243.941 257.349 225.677 244.314 208.402 240.308C194.473 237.077 180.097 237.635 167.663 241.889C139.741 251.44 121.909 270.879 116.208 297.977C111.698 319.416 118.719 341.817 135.124 358.33C147.356 370.643 161.688 377.622 178.244 379.331C182.094 379.728 185.497 380.197 185.805 380.372C186.114 380.548 184.246 385.011 181.653 390.289C174.695 404.457 173.23 411.313 173.314 429.307C173.38 443.481 173.561 444.83 176.608 453.807C185.778 480.822 206.001 500.411 232.672 508.11L240.665 510.418L244.67 518.363C249.025 527.004 257.033 537.836 259.009 537.759C261.129 537.677 267.63 528.696 272.347 519.331L276.869 510.355L283.031 509.098C296.141 506.424 314.319 494.985 324.302 483.127C336.712 468.385 342.575 455.067 344.816 436.528C346.854 419.672 343.821 404.02 335.634 389.133C333.464 385.188 332.038 381.743 332.466 381.479C332.894 381.215 337.428 380.277 342.543 379.395C360.098 376.366 369.513 371.72 381.224 360.307C393.008 348.823 397.994 339.886 401.153 324.592C403.166 314.849 403.173 305.798 401.175 296.127C398.09 281.193 392.89 271.823 381.294 260.305C355.353 234.539 314.442 231.069 283.174 251.982C275.506 257.111 269.261 263.582 262.822 273.068L259.14 278.494L256.226 274.44ZM170.093 309.625C171.244 299.655 178.564 291.122 188.019 288.728C201.33 285.357 214.642 295.836 215.57 310.414C216.328 322.317 209.231 331.684 197.152 334.726C183.39 338.191 168.401 324.287 170.093 309.625ZM302.672 302.158C304.936 297.172 311.475 290.777 315.978 289.144C323.854 286.287 333.95 289.09 340.443 295.935C350.987 307.049 348.142 325.307 334.815 332.057C321.581 338.76 305.792 332.923 301.885 319.885C300.204 314.272 300.532 306.87 302.672 302.158ZM94.0579 367.148C81.7119 347.301 78.7439 336.564 78.7439 311.742V295.807L71.4939 295.861C58.7379 295.955 48.4079 300.702 39.8859 310.383C32.6379 318.618 29.1429 333.116 31.6209 344.671C37.1189 370.305 64.4909 385.279 88.7439 375.92L89.1912 375.748C93.7981 373.971 95.8301 373.188 96.1674 371.945C96.4336 370.964 95.6444 369.696 94.2323 367.428L94.0579 367.148ZM479.784 313.866C473.846 305.122 466.469 299.888 456.244 297.163C453.494 296.43 448.59 295.825 445.346 295.819L439.448 295.807L440.045 303.557C441.686 324.859 435.387 350.791 424.804 366.307C421.661 370.914 422.164 372.311 427.847 374.756C439.1 379.597 452.745 379.397 463.422 374.234C469.166 371.456 478.613 361.944 481.768 355.759C488.829 341.919 488.079 326.081 479.784 313.866ZM225.411 370.944C225.411 367.111 229.721 362.175 234.206 360.871L234.275 360.851C236.155 360.304 237.163 360.011 238.179 359.974C239.353 359.932 240.538 360.23 243.093 360.874L243.175 360.894C245.746 361.541 249.866 363.945 253.367 366.84L259.244 371.699L263.244 367.806C267.622 363.546 274.82 359.851 278.744 359.851C280.119 359.851 283.152 360.717 285.485 361.776C297.591 367.272 292.953 381.417 280.166 377.997C275.377 376.717 272.475 377.46 271.408 380.239C270.244 383.273 262.59 387.807 258.632 387.807C255.421 387.807 253.839 386.932 248.61 382.266C244.434 378.54 241.883 376.938 240.822 377.377C239.954 377.735 237.414 378.252 235.177 378.527C229.835 379.182 225.411 375.747 225.411 370.944ZM251.588 423.918C266.232 425.955 282.748 421.921 292.744 413.866C296.014 411.231 297.328 411.3 300.289 414.262C303.942 417.914 303.484 421.412 298.767 425.9C290.253 433.999 274.63 439.131 258.744 439.049C241.723 438.96 227.986 434.538 218.714 426.161C214.297 422.171 213.44 417.905 216.399 414.636C218.878 411.896 223.093 412.416 228.99 416.188C235.624 420.432 241.862 422.565 251.588 423.918ZM393.486 57.5713L363.623 0L333.76 57.5713L363.623 115.143L393.486 57.5713ZM259.648 0L289.512 57.5713L259.648 115.143L229.785 57.5713L259.648 0Z" fill="#FF3B30"/>
</svg>
